<svg width="222" height="56" viewBox="0 0 222 56" fill="none" xmlns="http://www.w3.org/2000/svg">
<path fill-rule="evenodd" clip-rule="evenodd" d="M21.0861 35.4706C21.4985 35.7255 22.0876 36 22.5 36C22.9124 36 23.5015 35.7255 23.9335 35.4706C29.8381 31.7007 34.5889 27.6008 37.7341 23.3263C40.4781 19.5971 42 15.735 42 11.8431C42 4.90196 37.2281 0 31.0619 0C27.2326 0 24.287 2.11765 22.5 5.35294C20.7523 2.13725 17.7674 0 13.9381 0C7.7719 0 3 4.90196 3 11.8431C3 15.7346 4.52158 19.5962 7.2669 23.325C7.46799 23.5981 7.67563 23.8705 7.88973 24.1422C11.0268 28.1226 15.5483 31.9412 21.0861 35.4706ZM17.8962 40.5526L17.8614 40.5303C12.6421 37.2039 7.8088 33.3377 4.11148 28.9946C3.39169 31.0292 3 33.2189 3 35.5C3 46.2696 11.7304 55 22.5 55C33.2696 55 42 46.2696 42 35.5C42 33.2198 41.6086 31.0311 40.8894 28.9972C37.196 33.3382 32.3701 37.2028 27.1624 40.5277L27.0734 40.5845L26.9825 40.6382C26.5762 40.8779 26.0382 41.1631 25.4255 41.4066C24.9304 41.6034 23.8407 42 22.5 42C21.1582 42 20.0676 41.6036 19.5582 41.3991C18.9342 41.1487 18.376 40.8491 17.9314 40.5743L17.8962 40.5526Z" fill="white"/>
<path d="M51.848 39.376C51.848 36.24 52.464 33.4587 53.696 31.032C54.9653 28.6053 56.664 26.7387 58.792 25.432C60.9573 24.1253 63.3653 23.472 66.016 23.472C68.3307 23.472 70.3467 23.9387 72.064 24.872C73.8187 25.8053 75.2187 26.9813 76.264 28.4V23.976H84.16V55H76.264V50.464C75.256 51.92 73.856 53.1333 72.064 54.104C70.3093 55.0373 68.2747 55.504 65.96 55.504C63.3467 55.504 60.9573 54.832 58.792 53.488C56.664 52.144 54.9653 50.2587 53.696 47.832C52.464 45.368 51.848 42.5493 51.848 39.376ZM76.264 39.488C76.264 37.584 75.8907 35.96 75.144 34.616C74.3973 33.2347 73.3893 32.1893 72.12 31.48C70.8507 30.7333 69.488 30.36 68.032 30.36C66.576 30.36 65.232 30.7147 64 31.424C62.768 32.1333 61.76 33.1787 60.976 34.56C60.2293 35.904 59.856 37.5093 59.856 39.376C59.856 41.2427 60.2293 42.8853 60.976 44.304C61.76 45.6853 62.768 46.7493 64 47.496C65.2693 48.2427 66.6133 48.616 68.032 48.616C69.488 48.616 70.8507 48.2613 72.12 47.552C73.3893 46.8053 74.3973 45.76 75.144 44.416C75.8907 43.0347 76.264 41.392 76.264 39.488ZM101.953 47.776L109.793 23.976H118.137L106.657 55H97.1371L85.7131 23.976H94.1131L101.953 47.776ZM133.517 55.504C130.53 55.504 127.842 54.8507 125.453 53.544C123.063 52.2 121.178 50.3147 119.797 47.888C118.453 45.4613 117.781 42.6613 117.781 39.488C117.781 36.3147 118.471 33.5147 119.853 31.088C121.271 28.6613 123.194 26.7947 125.621 25.488C128.047 24.144 130.754 23.472 133.741 23.472C136.727 23.472 139.434 24.144 141.861 25.488C144.287 26.7947 146.191 28.6613 147.573 31.088C148.991 33.5147 149.701 36.3147 149.701 39.488C149.701 42.6613 148.973 45.4613 147.517 47.888C146.098 50.3147 144.157 52.2 141.693 53.544C139.266 54.8507 136.541 55.504 133.517 55.504ZM133.517 48.672C134.935 48.672 136.261 48.336 137.493 47.664C138.762 46.9547 139.77 45.9093 140.517 44.528C141.263 43.1467 141.637 41.4667 141.637 39.488C141.637 36.5387 140.853 34.28 139.285 32.712C137.754 31.1067 135.869 30.304 133.629 30.304C131.389 30.304 129.503 31.1067 127.973 32.712C126.479 34.28 125.733 36.5387 125.733 39.488C125.733 42.4373 126.461 44.7147 127.917 46.32C129.41 47.888 131.277 48.672 133.517 48.672ZM165.587 47.776L173.428 23.976H181.772L170.291 55H160.771L149.347 23.976H157.747L165.587 47.776ZM181.359 39.376C181.359 36.24 181.975 33.4587 183.207 31.032C184.476 28.6053 186.175 26.7387 188.303 25.432C190.468 24.1253 192.876 23.472 195.527 23.472C197.842 23.472 199.858 23.9387 201.575 24.872C203.33 25.8053 204.73 26.9813 205.775 28.4V23.976H213.671V55H205.775V50.464C204.767 51.92 203.367 53.1333 201.575 54.104C199.82 55.0373 197.786 55.504 195.471 55.504C192.858 55.504 190.468 54.832 188.303 53.488C186.175 52.144 184.476 50.2587 183.207 47.832C181.975 45.368 181.359 42.5493 181.359 39.376ZM205.775 39.488C205.775 37.584 205.402 35.96 204.655 34.616C203.908 33.2347 202.9 32.1893 201.631 31.48C200.362 30.7333 198.999 30.36 197.543 30.36C196.087 30.36 194.743 30.7147 193.511 31.424C192.279 32.1333 191.271 33.1787 190.487 34.56C189.74 35.904 189.367 37.5093 189.367 39.376C189.367 41.2427 189.74 42.8853 190.487 44.304C191.271 45.6853 192.279 46.7493 193.511 47.496C194.78 48.2427 196.124 48.616 197.543 48.616C198.999 48.616 200.362 48.2613 201.631 47.552C202.9 46.8053 203.908 45.76 204.655 44.416C205.402 43.0347 205.775 41.392 205.775 39.488Z" fill="white"/>
</svg>
