<svg width="422" height="151" viewBox="0 0 422 151" fill="none" xmlns="http://www.w3.org/2000/svg">
<path d="M134.3 82.4C134.3 76.8 135.433 71.9 137.7 67.7C139.967 63.4333 143.067 60.1333 147 57.8C151 55.4667 155.433 54.3 160.3 54.3C165.1 54.3 169.267 55.3333 172.8 57.4C176.333 59.4667 178.967 62.0667 180.7 65.2V55.2H189.9V110H180.7V99.8C178.9 103 176.2 105.667 172.6 107.8C169.067 109.867 164.933 110.9 160.2 110.9C155.333 110.9 150.933 109.7 147 107.3C143.067 104.9 139.967 101.533 137.7 97.2C135.433 92.8667 134.3 87.9333 134.3 82.4ZM180.7 82.5C180.7 78.3667 179.867 74.7667 178.2 71.7C176.533 68.6333 174.267 66.3 171.4 64.7C168.6 63.0333 165.5 62.2 162.1 62.2C158.7 62.2 155.6 63 152.8 64.6C150 66.2 147.767 68.5333 146.1 71.6C144.433 74.6667 143.6 78.2667 143.6 82.4C143.6 86.6 144.433 90.2667 146.1 93.4C147.767 96.4667 150 98.8333 152.8 100.5C155.6 102.1 158.7 102.9 162.1 102.9C165.5 102.9 168.6 102.1 171.4 100.5C174.267 98.8333 176.533 96.4667 178.2 93.4C179.867 90.2667 180.7 86.6333 180.7 82.5ZM220.678 101.6L237.678 55.2H247.378L225.878 110H215.278L193.778 55.2H203.578L220.678 101.6ZM275.233 110.9C270.099 110.9 265.433 109.733 261.233 107.4C257.099 105.067 253.833 101.767 251.433 97.5C249.099 93.1667 247.933 88.1667 247.933 82.5C247.933 76.9 249.133 71.9667 251.533 67.7C253.999 63.3667 257.333 60.0667 261.533 57.8C265.733 55.4667 270.433 54.3 275.633 54.3C280.833 54.3 285.533 55.4667 289.733 57.8C293.933 60.0667 297.233 63.3333 299.633 67.6C302.099 71.8667 303.333 76.8333 303.333 82.5C303.333 88.1667 302.066 93.1667 299.533 97.5C297.066 101.767 293.699 105.067 289.433 107.4C285.166 109.733 280.433 110.9 275.233 110.9ZM275.233 102.9C278.499 102.9 281.566 102.133 284.433 100.6C287.299 99.0667 289.599 96.7667 291.333 93.7C293.133 90.6333 294.033 86.9 294.033 82.5C294.033 78.1 293.166 74.3667 291.433 71.3C289.699 68.2333 287.433 65.9667 284.633 64.5C281.833 62.9667 278.799 62.2 275.533 62.2C272.199 62.2 269.133 62.9667 266.333 64.5C263.599 65.9667 261.399 68.2333 259.733 71.3C258.066 74.3667 257.233 78.1 257.233 82.5C257.233 86.9667 258.033 90.7333 259.633 93.8C261.299 96.8667 263.499 99.1667 266.233 100.7C268.966 102.167 271.966 102.9 275.233 102.9ZM330.698 101.6L347.698 55.2H357.398L335.898 110H325.298L303.798 55.2H313.598L330.698 101.6ZM357.952 82.4C357.952 76.8 359.086 71.9 361.352 67.7C363.619 63.4333 366.719 60.1333 370.652 57.8C374.652 55.4667 379.086 54.3 383.952 54.3C388.752 54.3 392.919 55.3333 396.452 57.4C399.986 59.4667 402.619 62.0667 404.352 65.2V55.2H413.552V110H404.352V99.8C402.552 103 399.852 105.667 396.252 107.8C392.719 109.867 388.586 110.9 383.852 110.9C378.986 110.9 374.586 109.7 370.652 107.3C366.719 104.9 363.619 101.533 361.352 97.2C359.086 92.8667 357.952 87.9333 357.952 82.4ZM404.352 82.5C404.352 78.3667 403.519 74.7667 401.852 71.7C400.186 68.6333 397.919 66.3 395.052 64.7C392.252 63.0333 389.152 62.2 385.752 62.2C382.352 62.2 379.252 63 376.452 64.6C373.652 66.2 371.419 68.5333 369.752 71.6C368.086 74.6667 367.252 78.2667 367.252 82.4C367.252 86.6 368.086 90.2667 369.752 93.4C371.419 96.4667 373.652 98.8333 376.452 100.5C379.252 102.1 382.352 102.9 385.752 102.9C389.152 102.9 392.252 102.1 395.052 100.5C397.919 98.8333 400.186 96.4667 401.852 93.4C403.519 90.2667 404.352 86.6333 404.352 82.5Z" fill="white"/>
<mask id="path-2-inside-1_7_14" fill="white">
<path d="M94.7523 55.3553C96.3144 53.7933 98.8623 53.7829 100.283 55.4748C105.246 61.3854 108.656 68.4682 110.17 76.0797C111.945 85.0028 111.034 94.2519 107.552 102.657C104.071 111.063 98.1747 118.247 90.6101 123.301C83.0454 128.356 74.1518 131.054 65.0538 131.054C55.9559 131.054 47.0623 128.356 39.4976 123.301C31.9329 118.247 26.037 111.063 22.5554 102.657C19.0737 94.2519 18.1628 85.0028 19.9377 76.0797C21.4517 68.4682 24.8621 61.3854 29.8248 55.4748C31.2454 53.7829 33.7932 53.7933 35.3553 55.3553L62.2254 82.2254C63.7875 83.7875 66.3202 83.7875 67.8822 82.2254L94.7523 55.3553Z"/>
</mask>
<path d="M94.7523 55.3553C96.3144 53.7933 98.8623 53.7829 100.283 55.4748C105.246 61.3854 108.656 68.4682 110.17 76.0797C111.945 85.0028 111.034 94.2519 107.552 102.657C104.071 111.063 98.1747 118.247 90.6101 123.301C83.0454 128.356 74.1518 131.054 65.0538 131.054C55.9559 131.054 47.0623 128.356 39.4976 123.301C31.9329 118.247 26.037 111.063 22.5554 102.657C19.0737 94.2519 18.1628 85.0028 19.9377 76.0797C21.4517 68.4682 24.8621 61.3854 29.8248 55.4748C31.2454 53.7829 33.7932 53.7933 35.3553 55.3553L62.2254 82.2254C63.7875 83.7875 66.3202 83.7875 67.8822 82.2254L94.7523 55.3553Z" stroke="white" stroke-width="14" mask="url(#path-2-inside-1_7_14)"/>
<mask id="path-3-inside-2_7_14" fill="white">
<path d="M85.6396 64.468C86.4206 63.687 87.6924 63.6829 88.4217 64.5126C92.0277 68.6148 94.4985 73.6041 95.5687 78.984C96.7692 85.0193 96.153 91.2751 93.7982 96.9602C91.4433 102.645 87.4555 107.504 82.3391 110.923C77.2226 114.342 71.2073 116.167 65.0538 116.167C58.9002 116.167 52.8849 114.342 47.7685 110.923C42.652 107.504 38.6642 102.645 36.3093 96.9602C33.9545 91.2751 33.3384 85.0193 34.5389 78.984C35.609 73.6041 38.0798 68.6148 41.6859 64.5126C42.4151 63.6829 43.6869 63.687 44.468 64.468L63.6396 83.6396C64.4206 84.4207 65.6869 84.4207 66.468 83.6396L85.6396 64.468Z"/>
</mask>
<path d="M85.6396 64.468C86.4206 63.687 87.6924 63.6829 88.4217 64.5126C92.0277 68.6148 94.4985 73.6041 95.5687 78.984C96.7692 85.0193 96.153 91.2751 93.7982 96.9602C91.4433 102.645 87.4555 107.504 82.3391 110.923C77.2226 114.342 71.2073 116.167 65.0538 116.167C58.9002 116.167 52.8849 114.342 47.7685 110.923C42.652 107.504 38.6642 102.645 36.3093 96.9602C33.9545 91.2751 33.3384 85.0193 34.5389 78.984C35.609 73.6041 38.0798 68.6148 41.6859 64.5126C42.4151 63.6829 43.6869 63.687 44.468 64.468L63.6396 83.6396C64.4206 84.4207 65.6869 84.4207 66.468 83.6396L85.6396 64.468Z" stroke="white" stroke-width="14" mask="url(#path-3-inside-2_7_14)"/>
<mask id="path-4-inside-3_7_14" fill="white">
<path d="M76.5859 73.5219C77.367 72.7408 78.6432 72.7347 79.3344 73.5963C81.1696 75.8836 82.4349 78.5867 83.0108 81.482C83.7173 85.0335 83.3547 88.7148 81.969 92.0603C80.5832 95.4057 78.2366 98.2651 75.2257 100.277C72.2149 102.289 68.6751 103.362 65.054 103.362C61.4329 103.362 57.8931 102.289 54.8822 100.277C51.8714 98.2651 49.5247 95.4057 48.139 92.0603C46.7532 88.7148 46.3907 85.0335 47.0971 81.482C47.673 78.5867 48.9383 75.8836 50.7735 73.5962C51.4648 72.7347 52.741 72.7408 53.522 73.5219L63.6398 83.6396C64.4208 84.4207 65.6871 84.4207 66.4682 83.6396L76.5859 73.5219Z"/>
</mask>
<path d="M76.5859 73.5219C77.367 72.7408 78.6432 72.7347 79.3344 73.5963C81.1696 75.8836 82.4349 78.5867 83.0108 81.482C83.7173 85.0335 83.3547 88.7148 81.969 92.0603C80.5832 95.4057 78.2366 98.2651 75.2257 100.277C72.2149 102.289 68.6751 103.362 65.054 103.362C61.4329 103.362 57.8931 102.289 54.8822 100.277C51.8714 98.2651 49.5247 95.4057 48.139 92.0603C46.7532 88.7148 46.3907 85.0335 47.0971 81.482C47.673 78.5867 48.9383 75.8836 50.7735 73.5962C51.4648 72.7347 52.741 72.7408 53.522 73.5219L63.6398 83.6396C64.4208 84.4207 65.6871 84.4207 66.4682 83.6396L76.5859 73.5219Z" stroke="white" stroke-width="14" mask="url(#path-4-inside-3_7_14)"/>
<path fill-rule="evenodd" clip-rule="evenodd" d="M82.2379 31.1413C80.4628 30.4396 79.5753 30.0887 78.4045 30.3315C77.2337 30.5743 76.4329 31.3752 74.8311 32.9769L70.7104 37.0976C68.0438 39.7642 66.7104 41.0976 65.0536 41.0976C63.3967 41.0976 62.0634 39.7642 59.3967 37.0976L55.2761 32.9769C53.6744 31.3752 52.8735 30.5743 51.7027 30.3315C50.5319 30.0888 49.6444 30.4396 47.8693 31.1414C36.9317 35.4653 37.7211 44.027 38.5656 47.5073C38.7017 48.0681 38.7697 48.3485 39.0394 48.8287C39.3091 49.309 39.5942 49.594 40.1643 50.1642L59.3967 69.3966C62.0634 72.0632 63.3967 73.3965 65.0536 73.3965C66.7104 73.3965 68.0438 72.0632 70.7104 69.3965L89.9428 50.1641C90.513 49.594 90.798 49.309 91.0677 48.8287C91.3374 48.3485 91.4055 48.0681 91.5416 47.5073C92.3861 44.0271 93.1756 35.4652 82.2379 31.1413Z" fill="white"/>
</svg>
