<svg width="93" height="102" viewBox="0 0 93 102" fill="none" xmlns="http://www.w3.org/2000/svg">
<path fill-rule="evenodd" clip-rule="evenodd" d="M78.1329 32.8741C81.1502 37.2382 83.2598 42.1933 84.3045 47.4452C85.8093 55.0105 85.0369 62.8521 82.0851 69.9784C79.1333 77.1047 74.1346 83.1957 67.7211 87.4811C61.3075 91.7664 53.7673 94.0537 46.0538 94.0537C38.3404 94.0538 30.8001 91.7664 24.3866 87.4811C17.9731 83.1957 12.9743 77.1047 10.0225 69.9784C7.0707 62.8521 6.29837 55.0105 7.8032 47.4452C8.84787 42.1933 10.9574 37.2382 13.9747 32.8742L38.2756 57.1751C42.5714 61.4708 49.5362 61.4708 53.832 57.1751L78.1329 32.8741ZM81.2828 25.4747C79.8623 23.7828 77.3144 23.7932 75.7523 25.3553L48.8822 52.2253C47.3202 53.7874 44.7875 53.7874 43.2254 52.2253L16.3553 25.3553C14.7932 23.7932 12.2454 23.7828 10.8248 25.4747C5.86205 31.3853 2.45173 38.4681 0.9377 46.0796C-0.83722 55.0027 0.0737338 64.2518 3.55536 72.6572C7.037 81.0626 12.9329 88.2468 20.4976 93.3013C28.0623 98.3559 36.9559 101.054 46.0538 101.054C55.1518 101.054 64.0454 98.3559 71.61 93.3013C79.1747 88.2468 85.0706 81.0626 88.5523 72.6572C92.0339 64.2518 92.9449 55.0027 91.1699 46.0796C89.6559 38.4681 86.2456 31.3853 81.2828 25.4747Z" fill="black"/>
<path fill-rule="evenodd" clip-rule="evenodd" d="M67.3196 43.6875C68.4314 45.7677 69.2381 48.011 69.7032 50.3496C70.6336 55.027 70.1561 59.8753 68.3311 64.2813C66.5061 68.6873 63.4155 72.4532 59.4501 75.1028C55.4848 77.7523 50.8229 79.1665 46.0538 79.1665C41.2848 79.1665 36.6228 77.7523 32.6575 75.1028C28.6922 72.4532 25.6016 68.6873 23.7766 64.2813C21.9515 59.8753 21.474 55.027 22.4044 50.3496C22.8696 48.011 23.6762 45.7677 24.7881 43.6875L39.6899 58.5893C43.2046 62.104 48.9031 62.104 52.4178 58.5893L67.3196 43.6875ZM69.4217 34.5125C68.6925 33.6829 67.4207 33.6869 66.6396 34.4679L47.468 53.6395C46.687 54.4206 45.4207 54.4206 44.6396 53.6395L25.468 34.4679C24.687 33.6869 23.4152 33.6829 22.6859 34.5125C19.0799 38.6147 16.609 43.604 15.5389 48.984C14.3384 55.0192 14.9546 61.275 17.3094 66.9601C19.6643 72.6452 23.6521 77.5043 28.7685 80.923C33.885 84.3418 39.9003 86.1665 46.0538 86.1665C52.2073 86.1665 58.2227 84.3418 63.3391 80.923C68.4556 77.5043 72.4434 72.6452 74.7982 66.9601C77.1531 61.275 77.7692 55.0192 76.5687 48.984C75.4986 43.604 73.0278 38.6147 69.4217 34.5125Z" fill="black"/>
<path fill-rule="evenodd" clip-rule="evenodd" d="M57.2839 53.7231C57.5111 55.6402 57.2442 57.5888 56.5017 59.3814C55.6457 61.4478 54.1963 63.2139 52.3366 64.4566C50.4769 65.6992 48.2905 66.3624 46.0538 66.3624C43.8172 66.3624 41.6308 65.6992 39.7711 64.4566C37.9114 63.2139 36.4619 61.4478 35.606 59.3814C34.8635 57.5888 34.5966 55.6402 34.8237 53.7231L39.6899 58.5893C43.2046 62.104 48.9031 62.104 52.4178 58.5893L57.2839 53.7231ZM60.3343 43.5962C59.643 42.7346 58.3668 42.7407 57.5858 43.5218L47.468 53.6395C46.687 54.4206 45.4207 54.4206 44.6396 53.6395L34.5219 43.5218C33.7408 42.7407 32.4646 42.7346 31.7734 43.5962C29.9382 45.8835 28.6729 48.5866 28.097 51.4819C27.3905 55.0334 27.7531 58.7147 29.1388 62.0602C30.5246 65.4056 32.8712 68.2651 35.8821 70.2768C38.8929 72.2886 42.4327 73.3624 46.0538 73.3624C49.6749 73.3624 53.2147 72.2886 56.2256 70.2768C59.2364 68.2651 61.5831 65.4056 62.9688 62.0602C64.3546 58.7147 64.7171 55.0334 64.0107 51.4819C63.4348 48.5866 62.1695 45.8835 60.3343 43.5962Z" fill="black"/>
<path d="M63.2379 1.14127C61.4628 0.439533 60.5753 0.0886666 59.4045 0.331443C58.2337 0.57422 57.4328 1.37509 55.8311 2.97683L51.7104 7.09751C49.0437 9.76418 47.7104 11.0975 46.0536 11.0975C44.3967 11.0975 43.0634 9.76418 40.3967 7.09751L36.2761 2.97687C34.6743 1.37512 33.8734 0.574248 32.7027 0.331473C31.5319 0.0886971 30.6443 0.439568 28.8692 1.14131C17.9316 5.46519 18.7211 14.027 19.5656 17.5072C19.7016 18.068 19.7697 18.3484 20.0394 18.8287C20.3091 19.3089 20.5942 19.594 21.1643 20.1641L40.3967 39.3965C43.0634 42.0632 44.3967 43.3965 46.0535 43.3965C47.7104 43.3965 49.0437 42.0632 51.7104 39.3965L70.9428 20.1641C71.5129 19.594 71.798 19.3089 72.0677 18.8287C72.3374 18.3484 72.4054 18.068 72.5415 17.5073C73.386 14.027 74.1756 5.46515 63.2379 1.14127Z" fill="black"/>
</svg>
